<svg width="33" height="49" fill="none" xmlns="http://www.w3.org/2000/svg"><path d="M30.487 10.543h-2.538c1.055-2.4.94-4.343.541-5.657C27.806 2.543 25.497 0 22.075 0c-.912 0-1.825.171-2.766.514-1.625.6-2.71 1.257-3.194 1.6-.485-.343-1.54-1-3.194-1.6A8.132 8.132 0 0 0 10.154 0C6.732 0 4.422 2.543 3.738 4.886c-.4 1.4-.542 3.514.798 6.171h-3.08a.45.45 0 0 0-.456.457c0 .257.2.457.456.457h3.622c.143.258.314.515.513.772 2.966 4.286 9.41 8.943 10.58 9.228V22s.029 0 .057-.029h.086v-.028c.998-.486 7.186-4.486 10.437-9.229.314-.428.57-.857.798-1.285h2.995A.45.45 0 0 0 31 10.97c0-.257-.257-.428-.513-.428zm-4.563 1.686c-3.023 4.428-8.584 8-9.781 8.771-1.227-.771-6.759-4.371-9.81-8.771l-.171-.258h4.192a.47.47 0 0 0 .427-.257l1.911-3.771 2.994 7.686c.057.171.257.285.428.285h.029c.2 0 .37-.143.427-.343l2.624-9 1.397 4.543c.057.172.2.286.371.315.171.028.342-.058.456-.2L22.53 9.6l.942 1.6a.455.455 0 0 0 .399.229h2.566c-.17.285-.342.542-.513.8zm1.027-1.686h-2.795l-1.17-2a.455.455 0 0 0-.399-.229c-.17 0-.313.057-.399.2l-.97 1.429-1.568-5.114c-.057-.2-.256-.315-.456-.343-.2 0-.4.143-.456.343L16.086 14l-2.88-7.371a.429.429 0 0 0-.4-.286c-.2 0-.342.086-.428.257l-2.253 4.429H5.591c-1.14-2.086-1.454-4.086-.94-5.886.598-2.029 2.566-4.2 5.532-4.2.798 0 1.625.171 2.452.457 2.082.771 3.194 1.657 3.222 1.657.171.143.4.143.57 0 0 0 1.113-.886 3.223-1.657a6.882 6.882 0 0 1 2.453-.457c2.937 0 4.933 2.171 5.532 4.2.485 1.657.228 3.486-.684 5.4z" fill="#000"/><path d="M0 28.5h32.5M0 38.5h32.5M0 48.5h32.5" stroke="#000"/></svg>