<svg width="26" height="40" fill="none" xmlns="http://www.w3.org/2000/svg"><path d="M26 16c0-3.953-1.868-7.488-4.79-9.813V.667A.675.675 0 0 0 20.526 0H5.474a.675.675 0 0 0-.685.667v5.52C1.87 8.512 0 12.047 0 16c0 3.953 1.868 7.488 4.79 9.813v13.52c0 .27.166.513.422.616.255.103.55.046.745-.144L13 32.943l7.043 6.862a.694.694 0 0 0 .745.144.667.667 0 0 0 .422-.616v-13.52C24.133 23.488 26 19.953 26 16zM6.158 1.333h13.684v3.901a13.097 13.097 0 0 0-2.41-1.142l-.06-.02a13.532 13.532 0 0 0-.944-.29 13.129 13.129 0 0 0-.59-.143 13.656 13.656 0 0 0-1.36-.223c-.047-.005-.096-.012-.144-.016a11.724 11.724 0 0 0-.377-.032l-.133-.008a14.073 14.073 0 0 0-.29-.015l-.127-.005a13.564 13.564 0 0 0-.814 0l-.127.005c-.097.004-.193.009-.29.015l-.133.008c-.126.009-.251.02-.377.032a13.722 13.722 0 0 0-1.296.194c-.07.014-.14.03-.209.045a13.844 13.844 0 0 0-.847.214 12.804 12.804 0 0 0-.686.218l-.06.02c-.847.301-1.654.686-2.41 1.143v-3.9zm13.684 36.391l-6.358-6.195a.692.692 0 0 0-.484-.196.691.691 0 0 0-.484.196l-6.358 6.195V26.766c.756.457 1.562.842 2.41 1.142l.06.021a13.37 13.37 0 0 0 1.982.522 13.152 13.152 0 0 0 .91.133l.146.017c.125.012.251.022.377.031l.133.008c.096.006.193.011.29.015l.127.005a13.42 13.42 0 0 0 .814 0l.127-.005c.097-.004.193-.009.29-.015l.133-.008c.126-.009.251-.019.376-.032.05-.004.098-.01.146-.016a13.604 13.604 0 0 0 1.15-.178l.21-.044a11.956 11.956 0 0 0 .375-.087l.214-.056a13.225 13.225 0 0 0 .944-.29l.06-.02a13.116 13.116 0 0 0 2.41-1.143v10.958zm.34-12.815a.682.682 0 0 0-.074.048 11.75 11.75 0 0 1-3.287 1.747l-.075.026-.087.028a12.279 12.279 0 0 1-.46.14l-.034.009a11.784 11.784 0 0 1-2.254.392l-.054.003c-.073.006-.146.01-.219.014l-.08.004-.203.008-.079.002a12.11 12.11 0 0 1-.553 0l-.078-.002a13.72 13.72 0 0 1-.502-.026l-.054-.003a11.922 11.922 0 0 1-2.507-.465l-.06-.018-.181-.058-.087-.028-.075-.026a11.736 11.736 0 0 1-3.287-1.747.678.678 0 0 0-.076-.049C3.11 22.831 1.368 19.61 1.368 16c0-3.609 1.74-6.829 4.445-8.906a.67.67 0 0 0 .08-.051 11.752 11.752 0 0 1 3.286-1.747l.075-.026.087-.028.18-.058.06-.018c.073-.021.146-.043.22-.063l.033-.01c.455-.125.92-.224 1.395-.295h.004c.282-.043.567-.075.856-.097l.054-.003a11.858 11.858 0 0 1 .502-.026l.078-.002a12.045 12.045 0 0 1 .553 0l.079.002a12.544 12.544 0 0 1 .502.026l.054.003c.288.022.574.054.856.096h.004a11.806 11.806 0 0 1 1.647.37l.06.017.181.058.087.028.075.026c1.17.399 2.276.984 3.287 1.747.024.018.05.034.075.049C22.89 9.169 24.631 12.39 24.631 16c0 3.61-1.741 6.832-4.449 8.909z" fill="#000"/><path d="M21.86 13.12a.681.681 0 0 0-.544-.445l-5.238-.796-2.465-4.842c-.23-.454-.994-.454-1.226 0L9.923 11.88l-5.239.796a.68.68 0 0 0-.543.446.656.656 0 0 0 .156.675l3.713 3.751-1.151 4.973c-.057.245.033.5.231.66a.7.7 0 0 0 .71.098l5.2-2.205 5.201 2.205a.694.694 0 0 0 .71-.098.657.657 0 0 0 .23-.66l-1.15-4.973 3.712-3.751a.656.656 0 0 0 .157-.675zm-5.11 3.76a.655.655 0 0 0-.175.61l.935 4.04-4.237-1.795a.705.705 0 0 0-.546 0L8.491 21.53l.934-4.042a.655.655 0 0 0-.174-.609l-3.054-3.086 4.287-.651a.68.68 0 0 0 .507-.363L13 8.833l2.009 3.947a.68.68 0 0 0 .507.363l4.287.651-3.054 3.086z" fill="#000"/></svg>