<svg width="33" height="49" viewBox="0 0 33 49" fill="none" xmlns="http://www.w3.org/2000/svg">
<path d="M29.4867 10.5429H26.9487C28.0038 8.14286 27.8897 6.2 27.4905 4.88571C26.8061 2.54286 24.4962 1.08991e-07 21.0741 1.08991e-07C20.1616 1.08991e-07 19.2491 0.171428 18.308 0.514286C16.6825 1.11429 15.5989 1.77143 15.1141 2.11429C14.6293 1.77143 13.5741 1.11429 11.9202 0.514286C10.9791 0.171428 10.038 1.08991e-07 9.15399 1.08991e-07C5.73194 1.08991e-07 3.42205 2.54286 2.73764 4.88571C2.3384 6.28571 2.19582 8.4 3.53612 11.0571H0.456274C0.19962 11.0571 0 11.2571 0 11.5143C0 11.7714 0.19962 11.9714 0.456274 11.9714H4.07795C4.22053 12.2286 4.39164 12.4857 4.59126 12.7429C7.55703 17.0286 14.0019 21.6857 15.1711 21.9714V22C15.1711 22 15.1996 22 15.2281 21.9714C15.2567 21.9714 15.2852 21.9714 15.3137 21.9714V21.9429C16.3118 21.4571 22.5 17.4571 25.751 12.7143C26.0646 12.2857 26.3213 11.8571 26.5494 11.4286H29.5437C29.8004 11.4286 30 11.2286 30 10.9714C30 10.7143 29.7433 10.5429 29.4867 10.5429ZM24.924 12.2286C21.9011 16.6571 16.3403 20.2286 15.1426 21C13.9163 20.2286 8.38403 16.6286 5.3327 12.2286C5.27567 12.1429 5.21863 12.0571 5.1616 11.9714H9.35361C9.52472 11.9714 9.69582 11.8857 9.78137 11.7143L11.692 7.94286L14.6863 15.6286C14.7433 15.8 14.943 15.9143 15.1141 15.9143C15.1141 15.9143 15.1141 15.9143 15.1426 15.9143C15.3422 15.9143 15.5133 15.7714 15.5703 15.5714L18.1939 6.57143L19.5913 11.1143C19.6483 11.2857 19.7909 11.4 19.962 11.4286C20.1331 11.4571 20.3042 11.3714 20.4183 11.2286L21.5304 9.6L22.4715 11.2C22.557 11.3429 22.6996 11.4286 22.8707 11.4286H25.4373C25.2662 11.7143 25.0951 11.9714 24.924 12.2286ZM25.9506 10.5429H23.1559L21.9867 8.54286C21.9011 8.4 21.7586 8.31429 21.5875 8.31429C21.4164 8.31429 21.2738 8.37143 21.1882 8.51429L20.2186 9.94286L18.6502 4.82857C18.5932 4.62857 18.3935 4.51429 18.1939 4.48571C17.9943 4.48571 17.7947 4.62857 17.7376 4.82857L15.0856 14L12.2053 6.62857C12.1483 6.45714 11.9772 6.34286 11.8061 6.34286C11.6065 6.34286 11.4639 6.42857 11.3783 6.6L9.12548 11.0286H4.59126C3.45057 8.94286 3.13688 6.94286 3.65019 5.14286C4.24905 3.11428 6.21673 0.942857 9.18251 0.942857C9.98099 0.942857 10.808 1.11429 11.635 1.4C13.7167 2.17143 14.8289 3.05714 14.8574 3.05714C15.0285 3.2 15.2567 3.2 15.4278 3.05714C15.4278 3.05714 16.5399 2.17143 18.6502 1.4C19.4772 1.08571 20.3042 0.942857 21.1027 0.942857C24.0399 0.942857 26.0361 3.11428 26.635 5.14286C27.1198 6.8 26.8631 8.62857 25.9506 10.5429Z" transform="translate(1)" fill="black"/>
<path d="M0 0H32.5" transform="translate(0 28.5)" stroke="black"/>
<path d="M0 0H32.5" transform="translate(0 38.5)" stroke="black"/>
<path d="M0 0H32.5" transform="translate(0 48.5)" stroke="black"/>
</svg>
