<svg width="26" height="40" viewBox="0 0 26 40" fill="none" xmlns="http://www.w3.org/2000/svg">
<path d="M26 16C26 12.0469 24.1316 8.51156 21.2105 6.18688V0.666641C21.2105 0.298672 20.9047 0 20.5264 0H5.47364C5.09527 0 4.78946 0.298672 4.78946 0.666641V6.18688C1.86838 8.51156 -2.59375e-07 12.0469 -2.59375e-07 16C-2.59375e-07 19.9531 1.86838 23.4884 4.78946 25.8131V39.3334C4.78946 39.6027 4.95575 39.846 5.21161 39.9494C5.46747 40.052 5.76173 39.9954 5.95738 39.8047L13 32.9427L20.0426 39.8047C20.1733 39.932 20.3484 40 20.5264 40C20.6146 40 20.7036 39.9834 20.7884 39.9494C21.0442 39.846 21.2105 39.6027 21.2105 39.3334V25.8131C24.1316 23.4884 26 19.9531 26 16ZM6.15791 1.33336H19.8422V5.2343C19.0865 4.77664 18.2796 4.39203 17.4315 4.09156C17.412 4.08461 17.3922 4.07812 17.3725 4.07125C17.2719 4.03617 17.1708 4.00227 17.069 3.96945C17.0212 3.95406 16.9735 3.93883 16.9255 3.92398C16.846 3.89938 16.7659 3.87578 16.6858 3.85266C16.6002 3.82789 16.5144 3.80422 16.4284 3.78125C16.3572 3.76227 16.286 3.74328 16.2142 3.72547C16.146 3.70852 16.0775 3.69242 16.009 3.67656C15.9524 3.66344 15.8957 3.65078 15.839 3.63844C15.7692 3.6232 15.6995 3.60797 15.6295 3.59391C15.5497 3.57789 15.4694 3.5632 15.3892 3.54859C15.2965 3.5318 15.2035 3.51602 15.1103 3.50117C15.0435 3.49047 14.9766 3.48 14.9095 3.47039C14.8468 3.46141 14.784 3.45273 14.7211 3.44461C14.6408 3.43422 14.5603 3.42492 14.4796 3.41594C14.4309 3.41055 14.3823 3.40445 14.3336 3.39961C14.2085 3.38711 14.0828 3.3768 13.9566 3.36781C13.9125 3.36469 13.8681 3.36227 13.8239 3.35961C13.7275 3.35367 13.6308 3.34883 13.5338 3.345C13.4916 3.34336 13.4494 3.34156 13.4072 3.34031C13.2719 3.33625 13.1363 3.33352 13 3.33352C12.8637 3.33352 12.7281 3.33625 12.5928 3.34031C12.5506 3.34156 12.5083 3.34336 12.4662 3.345C12.3692 3.34883 12.2726 3.35375 12.1761 3.35961C12.1319 3.36227 12.0875 3.36469 12.0434 3.36781C11.9172 3.3768 11.7916 3.38719 11.6665 3.39961C11.6177 3.40445 11.5691 3.41055 11.5204 3.41594C11.4398 3.42492 11.3593 3.43422 11.279 3.44461C11.2161 3.45273 11.1533 3.46133 11.0906 3.47039C11.0235 3.48008 10.9566 3.49055 10.8899 3.50117C10.7964 3.51609 10.7032 3.53187 10.6103 3.54875C10.5303 3.56328 10.4502 3.57797 10.3707 3.59391C10.3006 3.60797 10.2309 3.62328 10.161 3.63852C10.1043 3.65086 10.0477 3.66352 9.99121 3.67656C9.92265 3.6925 9.8541 3.70852 9.78586 3.72555C9.71426 3.74336 9.64306 3.76234 9.57186 3.78133C9.48574 3.8043 9.39987 3.82805 9.31432 3.85281C9.23414 3.87594 9.15419 3.89953 9.07474 3.92414C9.02679 3.93898 8.97892 3.95422 8.93105 3.96969C8.82938 4.00242 8.72827 4.03633 8.62765 4.07141C8.608 4.07828 8.5882 4.08477 8.56863 4.09172C7.72056 4.39227 6.91369 4.77688 6.15799 5.23445V1.33336H6.15791ZM19.8421 37.724L13.4837 31.5287C13.3503 31.3987 13.1751 31.3334 13 31.3334C12.8248 31.3334 12.6497 31.3987 12.5163 31.5287L6.15791 37.724V26.7657C6.91362 27.2233 7.7204 27.6079 8.56839 27.9084C8.5882 27.9155 8.60824 27.922 8.62813 27.929C8.72843 27.964 8.8293 27.9978 8.93073 28.0305C8.9786 28.0459 9.02655 28.0612 9.07458 28.0761C9.15403 28.1007 9.23398 28.1242 9.31416 28.1473C9.39971 28.1721 9.48558 28.1959 9.5717 28.2188C9.6429 28.2378 9.71402 28.2567 9.7857 28.2746C9.85394 28.2916 9.92249 28.3077 9.99105 28.3236C10.0475 28.3366 10.1041 28.3493 10.1609 28.3616C10.2307 28.3769 10.3005 28.3921 10.3705 28.4062C10.4501 28.4223 10.5301 28.4369 10.6101 28.4514C10.7031 28.4683 10.7963 28.4841 10.8897 28.499C10.9565 28.5097 11.0233 28.5201 11.0904 28.5298C11.1531 28.5387 11.2159 28.5474 11.2788 28.5555C11.359 28.5659 11.4396 28.5752 11.5203 28.5842C11.569 28.5896 11.6175 28.5957 11.6663 28.6005C11.7914 28.613 11.9172 28.6234 12.0432 28.6323C12.0874 28.6355 12.1317 28.6379 12.176 28.6405C12.2724 28.6465 12.3691 28.6513 12.466 28.6552C12.5082 28.6568 12.5504 28.6586 12.5927 28.6598C12.7279 28.6639 12.8635 28.6666 12.9998 28.6666C13.1361 28.6666 13.2717 28.6639 13.407 28.6598C13.4493 28.6586 13.4915 28.6568 13.5337 28.6552C13.6306 28.6513 13.7272 28.6464 13.8237 28.6405C13.868 28.6379 13.9123 28.6355 13.9565 28.6323C14.0826 28.6234 14.2082 28.613 14.3334 28.6005C14.3822 28.5957 14.4308 28.5896 14.4794 28.5842C14.5601 28.5752 14.6407 28.5659 14.7209 28.5555C14.7839 28.5474 14.8467 28.5388 14.9094 28.5298C14.9765 28.5201 15.0433 28.5096 15.1101 28.499C15.2033 28.4841 15.2963 28.4684 15.389 28.4516C15.4693 28.437 15.5495 28.4223 15.6293 28.4062C15.6994 28.3922 15.7691 28.3769 15.8388 28.3617C15.8956 28.3494 15.9523 28.3367 16.0088 28.3236C16.0774 28.3077 16.1458 28.2916 16.2141 28.2747C16.2857 28.2569 16.3569 28.2379 16.4282 28.2189C16.5143 28.1959 16.6001 28.1722 16.6856 28.1475C16.7658 28.1244 16.8457 28.1008 16.9253 28.0762C16.9733 28.0613 17.0212 28.0461 17.069 28.0306C17.1705 27.998 17.2714 27.9641 17.3718 27.9291C17.3917 27.9222 17.4116 27.9156 17.4315 27.9086C18.2796 27.608 19.0864 27.2235 19.842 26.7659V37.724H19.8421ZM20.1824 24.9088C20.1566 24.9234 20.1315 24.9393 20.1076 24.9573C19.0971 25.7197 17.991 26.3052 16.8209 26.7045C16.7959 26.713 16.7712 26.7219 16.7461 26.7302C16.7172 26.7398 16.6881 26.7488 16.6591 26.7582C16.5989 26.7777 16.5387 26.797 16.4781 26.8156C16.4581 26.8217 16.4382 26.8277 16.4182 26.8337C16.3455 26.8555 16.2725 26.8768 16.1991 26.8973C16.1878 26.9004 16.1766 26.9036 16.1653 26.9067C15.7112 27.032 15.246 27.1312 14.7713 27.2021C14.7699 27.2023 14.7686 27.2025 14.7673 27.2027C14.485 27.2448 14.1993 27.2769 13.9108 27.2988C13.8928 27.3001 13.8749 27.3012 13.8568 27.3025C13.7841 27.3077 13.7111 27.3122 13.638 27.316C13.6115 27.3174 13.5851 27.3188 13.5586 27.32C13.4909 27.3231 13.423 27.3255 13.3549 27.3276C13.3287 27.3284 13.3026 27.3293 13.2764 27.3299C13.1844 27.332 13.0923 27.3334 12.9999 27.3334C12.9075 27.3334 12.8153 27.332 12.7234 27.3299C12.6972 27.3293 12.671 27.3284 12.6449 27.3276C12.5768 27.3255 12.5089 27.3231 12.4411 27.32C12.4147 27.3188 12.3882 27.3174 12.3618 27.316C12.2886 27.3121 12.2157 27.3077 12.1429 27.3025C12.125 27.3012 12.1069 27.3001 12.089 27.2988C11.8004 27.2769 11.5148 27.2448 11.2325 27.2027C11.2311 27.2025 11.2298 27.2023 11.2285 27.2021C10.7538 27.1312 10.2885 27.032 9.83437 26.9066C9.82315 26.9035 9.81192 26.9004 9.80069 26.8973C9.72733 26.8768 9.65428 26.8555 9.58156 26.8336C9.56159 26.8276 9.54163 26.8217 9.52174 26.8156C9.46113 26.7971 9.40083 26.7777 9.3407 26.7582C9.31175 26.7488 9.28265 26.7398 9.25378 26.7302C9.22868 26.7218 9.20391 26.7129 9.17889 26.7045C8.00889 26.3052 6.90279 25.7196 5.89227 24.9573C5.86805 24.939 5.84256 24.9227 5.8165 24.908C3.1095 22.8311 1.36829 19.61 1.36829 16C1.36829 12.3914 3.10822 9.17141 5.81345 7.09445C5.84063 7.07914 5.86709 7.06195 5.89227 7.04266C6.90279 6.28031 8.00889 5.69484 9.17889 5.29555C9.20391 5.28703 9.22868 5.27813 9.25378 5.26984C9.28265 5.26023 9.31175 5.25117 9.3407 5.2418C9.40091 5.22234 9.46113 5.20297 9.52174 5.18437C9.54163 5.17828 9.56168 5.17234 9.58156 5.16641C9.65436 5.14453 9.72733 5.1232 9.80069 5.10273C9.81192 5.09961 9.82315 5.09648 9.83437 5.09336C10.2885 4.96805 10.7537 4.86891 11.2285 4.79789C11.2298 4.79766 11.2311 4.7975 11.2325 4.79727C11.5148 4.75516 11.8005 4.72312 12.089 4.70125C12.1069 4.69992 12.1249 4.69875 12.1429 4.6975C12.2157 4.69234 12.2886 4.68781 12.3618 4.68398C12.3882 4.68258 12.4147 4.68125 12.4411 4.68C12.5089 4.67688 12.5768 4.67445 12.6449 4.67242C12.671 4.67164 12.6972 4.6707 12.7234 4.67008C12.8153 4.66797 12.9075 4.66664 12.9999 4.66664C13.0924 4.66664 13.1845 4.66797 13.2764 4.67008C13.3026 4.6707 13.3287 4.67164 13.3549 4.67242C13.423 4.67445 13.4909 4.67688 13.5586 4.68C13.5851 4.68125 13.6115 4.68258 13.638 4.68398C13.7111 4.68789 13.784 4.69234 13.8568 4.6975C13.8748 4.69875 13.8928 4.69992 13.9108 4.70125C14.1993 4.72312 14.485 4.75516 14.7673 4.79727C14.7686 4.7975 14.7699 4.79766 14.7713 4.79789C15.246 4.86883 15.7112 4.96805 16.1653 5.09328C16.1766 5.09641 16.1878 5.09953 16.1991 5.10273C16.2725 5.1232 16.3454 5.14453 16.4182 5.16633C16.4382 5.17234 16.4582 5.1782 16.4781 5.18437C16.5387 5.20289 16.599 5.22227 16.6591 5.2418C16.6881 5.25117 16.7172 5.26023 16.7461 5.26984C16.7712 5.2782 16.7959 5.28711 16.8209 5.29555C17.991 5.69484 19.0971 6.28039 20.1076 7.04266C20.1318 7.06109 20.1572 7.07719 20.1833 7.09195C22.8903 9.16883 24.6315 12.3899 24.6315 15.9999C24.6316 19.6104 22.89 22.8319 20.1824 24.9088Z" fill="black"/>
<path d="M17.7538 6.42385C17.6723 6.18854 17.4623 6.01588 17.2104 5.97783L11.9721 5.18182L9.50761 0.340489C9.27637 -0.113496 8.51281 -0.113496 8.28149 0.340489L5.81696 5.18182L0.578648 5.97783C0.326879 6.0158 0.116805 6.18854 0.0354212 6.42385C-0.0453212 6.65986 0.0141731 6.91986 0.191454 7.09916L3.904 10.8505L2.75316 15.8231C2.69639 16.0678 2.78603 16.3231 2.9844 16.4831C3.18285 16.6438 3.45651 16.6811 3.69392 16.5811L8.89455 14.3758L14.0953 16.5811C14.1828 16.6185 14.2759 16.6364 14.3683 16.6364C14.5249 16.6364 14.6796 16.5838 14.8048 16.4831C15.0032 16.3231 15.0929 16.0678 15.036 15.8231L13.8852 10.8504L17.5977 7.09908C17.7749 6.91979 17.8345 6.65979 17.7538 6.42385ZM12.6441 10.1831C12.4847 10.3452 12.4183 10.5738 12.4696 10.7924L13.4043 14.8338L9.16765 13.0378C9.08009 13.0011 8.98772 12.9824 8.89463 12.9824C8.80154 12.9824 8.70917 13.0011 8.62161 13.0378L4.385 14.8338L5.31967 10.7924C5.37099 10.5738 5.3046 10.3451 5.1452 10.1831L2.09086 7.09713L6.37815 6.4458C6.59776 6.41244 6.78731 6.27713 6.88513 6.08314L8.89455 2.1365L10.904 6.08314C11.0019 6.27713 11.1914 6.41252 11.411 6.4458L15.6983 7.09713L12.6441 10.1831Z" transform="translate(4.10571 6.6969)" fill="black"/>
</svg>
