<svg width="16" height="23" viewBox="0 0 16 23" fill="none" xmlns="http://www.w3.org/2000/svg">
<path d="M8 0C3.5888 0 0 3.62735 0 8.08594C0 9.59235 0.412845 11.0625 1.19418 12.3379L7.54462 22.6815C7.66627 22.8796 7.88058 23 8.11107 23C8.11284 23 8.11458 23 8.11636 23C8.34884 22.9982 8.5636 22.874 8.68302 22.6724L14.8716 12.2286C15.6098 10.9802 16 9.54765 16 8.08594C16 3.62735 12.4112 0 8 0ZM13.7274 11.5367L8.10098 21.0318L2.32742 11.6278C1.67707 10.5663 1.32444 9.3415 1.32444 8.08594C1.32444 4.37045 4.324 1.33867 8 1.33867C11.676 1.33867 14.6711 4.37045 14.6711 8.08594C14.6711 9.30426 14.3417 10.4977 13.7274 11.5367Z" fill="#1AACCE"/>
<path d="M4 0C1.7944 0 0 1.81368 0 4.04297C0 6.25802 1.7652 8.08594 4 8.08594C6.26236 8.08594 8 6.23367 8 4.04297C8 1.81368 6.2056 0 4 0ZM4 6.74727C2.52191 6.74727 1.32444 5.53289 1.32444 4.04297C1.32444 2.55677 2.5296 1.33867 4 1.33867C5.4704 1.33867 6.67111 2.55677 6.67111 4.04297C6.67111 5.51115 5.50151 6.74727 4 6.74727Z" transform="translate(4 4.04297)" fill="#1AACCE"/>
</svg>
