<svg width="18" height="20" viewBox="0 0 18 20" fill="none" xmlns="http://www.w3.org/2000/svg">
<path d="M17.6786 1.33333H15.4286V0.333333C15.4286 0.149 15.2849 0 15.1071 0H12.8571C12.6794 0 12.5357 0.149 12.5357 0.333333V1.33333H5.46429V0.333333C5.46429 0.149 5.32061 0 5.14286 0H2.89286C2.71511 0 2.57143 0.149 2.57143 0.333333V1.33333H0.321429C0.143679 1.33333 0 1.48233 0 1.66667V5.33333V19.6667C0 19.851 0.143679 20 0.321429 20H17.6786C17.8563 20 18 19.851 18 19.6667V5.33333V1.66667C18 1.48233 17.8563 1.33333 17.6786 1.33333ZM13.1786 0.666667H14.7857V1.66667V2.66667H13.1786V1.66667V0.666667ZM3.21429 0.666667H4.82143V1.66667V2.66667H3.21429V1.66667V0.666667ZM0.642857 2H2.57143V3C2.57143 3.18433 2.71511 3.33333 2.89286 3.33333H5.14286C5.32061 3.33333 5.46429 3.18433 5.46429 3V2H12.5357V3C12.5357 3.18433 12.6794 3.33333 12.8571 3.33333H15.1071C15.2849 3.33333 15.4286 3.18433 15.4286 3V2H17.3571V5H0.642857V2ZM0.642857 19.3333V5.66667H17.3571V19.3333H0.642857Z" transform="translate(18) scale(-1 1)" fill="#1AACCE"/>
<path d="M8.67857 0H6.42857H5.78571H3.53571H2.89286H0V3V3.66667V6V6.66667V9.66667H2.89286H3.53571H5.78571H6.42857H8.67857H9.32143H12.2143V6.66667V6V3.66667V3V0H9.32143H8.67857ZM6.42857 0.666667H8.67857V3H6.42857V0.666667ZM8.67857 6H6.42857V3.66667H8.67857V6ZM3.53571 3.66667H5.78571V6H3.53571V3.66667ZM3.53571 0.666667H5.78571V3H3.53571V0.666667ZM0.642857 0.666667H2.89286V3H0.642857V0.666667ZM0.642857 3.66667H2.89286V6H0.642857V3.66667ZM2.89286 9H0.642857V6.66667H2.89286V9ZM5.78571 9H3.53571V6.66667H5.78571V9ZM8.67857 9H6.42857V6.66667H8.67857V9ZM11.5714 9H9.32143V6.66667H11.5714V9ZM11.5714 6H9.32143V3.66667H11.5714V6ZM11.5714 0.666667V3H9.32143V0.666667H11.5714Z" transform="translate(15.1072 7.66669) scale(-1 1)" fill="#1AACCE"/>
</svg>
